{"accessors" : [{"bufferView" : 0, "byteOffset" : 0, "componentType" : 5125, "count" : 179250, "type" : "SCALAR", "max" : [179249], "min" : [0]}, {"bufferView" : 1, "byteOffset" : 0, "componentType" : 5126, "count" : 179250, "type" : "VEC3", "max" : [77.90624237060547, 82.87753295898438, 373.3393249511719], "min" : [-82.88585662841797, -82.88239288330078, 0], "name" : "POSITION"}, {"bufferView" : 1, "byteOffset" : 12, "componentType" : 5126, "count" : 179250, "type" : "VEC3", "max" : [1.0000046491622925, 1.0000046491622925, 1.0000046491622925], "min" : [-1.0000046491622925, -1.0000046491622925, -1.0000046491622925], "name" : "NORMAL"}, {"bufferView" : 1, "byteOffset" : 24, "componentType" : 5126, "count" : 179250, "type" : "VEC2", "max" : [37.215370178222656, 42.00050354003906], "min" : [-37.49514389038086, -38.977420806884766], "name" : "TEXCOORD_0"}, {"bufferView" : 0, "byteOffset" : 717000, "componentType" : 5123, "count" : 32088, "type" : "SCALAR", "max" : [32087], "min" : [0]}, {"bufferView" : 2, "byteOffset" : 0, "componentType" : 5126, "count" : 32088, "type" : "VEC3", "max" : [72.89176940917969, 70.64888000488281, 345.50244140625], "min" : [-6.879313945770264, -70.65275573730469, 40.467315673828125], "name" : "POSITION"}, {"bufferView" : 2, "byteOffset" : 12, "componentType" : 5126, "count" : 32088, "type" : "VEC3", "max" : [0.3176213502883911, 0.999313473701477, 0.5945456027984619], "min" : [-0.9999724626541138, -0.9992092847824097, -0.482073575258255], "name" : "NORMAL"}, {"bufferView" : 2, "byteOffset" : 24, "componentType" : 5126, "count" : 32088, "type" : "VEC2", "max" : [-0.02479100041091442, 8.858461380004883], "min" : [-31.138511657714844, -36.00040817260742], "name" : "TEXCOORD_0"}], "asset" : {"generator" : "Aspose.3D 24.6.0", "version" : "2.0"}, "buffers" : [{"uri" : "buffer.bin", "byteLength" : 7544004}], "bufferViews" : [{"buffer" : 0, "byteOffset" : 0, "byteLength" : 781176, "target" : 34963}, {"buffer" : 0, "byteOffset" : 781180, "byteLength" : 5736000, "byteStride" : 32, "target" : 34962}, {"buffer" : 0, "byteOffset" : 6517184, "byteLength" : 1026816, "byteStride" : 32, "target" : 34962}], "materials" : [{"name" : "69_69_69", "pbrMetallicRoughness" : {"baseColorFactor" : [0.2705880105495453, 0.2705880105495453, 0.2705880105495453, 1], "metallicFactor" : 0, "roughnessFactor" : -9}, "emissiveFactor" : [0, 0, 0], "alphaMode" : "OPAQUE", "doubleSided" : false}, {"name" : "191_191_191", "pbrMetallicRoughness" : {"baseColorFactor" : [0.749019980430603, 0.749019980430603, 0.749019980430603, 1], "metallicFactor" : 0, "roughnessFactor" : -2}, "emissiveFactor" : [0, 0, 0], "alphaMode" : "OPAQUE", "doubleSided" : false}], "meshes" : [{"primitives" : [{"attributes" : {"POSITION" : 1, "NORMAL" : 2, "TEXCOORD_0" : 3}, "indices" : 0, "material" : 0, "mode" : 4}, {"attributes" : {"POSITION" : 5, "NORMAL" : 6, "TEXCOORD_0" : 7}, "indices" : 4, "material" : 1, "mode" : 4}], "name" : ""}], "nodes" : [{"matrix" : [0.07324499999999999, 0, 0, 0, 0, 4.484962740177393E-18, -0.07324499999999999, 0, 0, 0.07324499999999999, 4.484962740177393E-18, 0, 0, 0, 0, 1], "mesh" : 0, "name" : "vase15"}], "scene" : 0, "scenes" : [{"nodes" : [0]}]}